<svg version="1.1" id="Layer_1" xmlns="http://www.w3.org/2000/svg" xmlns:xlink="http://www.w3.org/1999/xlink" x="0px" y="0px"
	 width="100%" viewBox="0 0 130 130" enable-background="new 0 0 130 130" xml:space="preserve">
<path fill="#15181B" opacity="1.000000" stroke="none" 
	d="
M1.000001,82.000000 
	C1.000000,71.645775 1.000000,61.291546 1.357144,50.397865 
	C2.143975,49.211224 2.747732,48.620354 2.977969,47.908646 
	C9.210701,28.642017 20.991007,14.294009 39.787838,6.065560 
	C43.264763,4.543510 46.599590,2.696842 50.000000,1.000000 
	C60.354229,1.000000 70.708458,1.000000 81.602066,1.357076 
	C82.788422,2.144411 83.378937,2.749294 84.090622,2.979465 
	C103.358124,9.210835 117.706581,20.990524 125.934761,39.788025 
	C127.456680,43.264893 129.303268,46.599651 131.000000,50.000000 
	C131.000000,60.354229 131.000000,70.708458 130.642914,81.602066 
	C129.855591,82.788422 129.250748,83.378929 129.020584,84.090614 
	C122.789238,103.358109 111.009727,117.706688 92.212044,125.934662 
	C88.735123,127.456551 85.400368,129.303223 82.000000,131.000000 
	C71.645775,131.000000 61.291546,131.000000 50.397934,130.642929 
	C49.211472,129.855591 48.620872,129.250687 47.909088,129.020477 
	C28.641432,122.788834 14.291027,111.011078 6.064809,92.211060 
	C4.543509,88.734314 2.696618,85.400032 1.000001,82.000000 
M33.163090,44.237949 
	C32.435619,44.832088 31.008402,45.541321 31.084391,46.003304 
	C32.493465,54.569912 34.081718,63.107048 35.632240,71.650391 
	C36.876812,71.106300 36.982395,70.796371 37.058090,70.479301 
	C39.251957,61.289890 40.796585,52.174210 34.440292,43.284634 
	C36.567642,45.680191 38.694992,48.075748 40.580986,50.199520 
	C42.527802,47.348564 44.693993,44.176350 46.856049,41.016659 
	C42.282421,37.492905 38.901230,37.609970 33.426369,41.289436 
	C33.657143,42.301327 33.859646,43.189247 33.163090,44.237949 
M75.801682,40.357632 
	C75.263351,39.460522 74.725014,38.563408 73.756927,37.075233 
	C65.437164,31.710840 59.134838,36.502621 52.902233,41.300587 
	C49.983768,43.547272 45.385891,45.611061 44.746243,48.472435 
	C42.012367,60.702072 39.838058,73.142952 38.748234,85.619339 
	C38.161510,92.336220 41.051765,94.618057 47.705208,96.177460 
	C59.373978,98.912338 71.166481,98.729172 82.868599,96.571609 
	C91.076027,95.058372 94.163574,91.941841 93.462509,83.570480 
	C92.525581,72.382690 90.400703,61.253708 88.130554,50.234505 
	C86.898514,44.254288 82.312630,41.183792 75.801682,40.357632 
M95.370102,48.874683 
	C89.839157,56.517445 95.047173,64.171494 95.416573,71.859802 
	C98.149277,62.823051 101.659798,53.952679 100.661552,42.646866 
	C98.444862,45.208923 97.120117,46.740063 95.370102,48.874683 
M90.978691,50.304752 
	C91.085838,50.431599 91.174431,50.586590 91.307396,50.674297 
	C91.382187,50.723629 91.590019,50.706463 91.636696,50.643822 
	C93.987785,47.489006 96.327919,44.326031 98.650284,41.189545 
	C92.523682,37.582733 88.403870,37.635746 85.463425,41.128799 
	C87.264229,44.079025 88.967751,46.869858 90.978691,50.304752 
z"/>
<path fill="#000000" opacity="1.000000" stroke="none" 
	d="
M49.531342,1.000000 
	C46.599590,2.696842 43.264763,4.543510 39.787838,6.065560 
	C20.991007,14.294009 9.210701,28.642017 2.977969,47.908646 
	C2.747732,48.620354 2.143975,49.211224 1.357144,49.929207 
	C1.000000,33.739925 1.000000,17.479853 1.000000,1.000000 
	C17.020226,1.000000 33.041454,1.000000 49.531342,1.000000 
z"/>
<path fill="#000000" opacity="1.000000" stroke="none" 
	d="
M131.000000,49.531342 
	C129.303268,46.599651 127.456680,43.264893 125.934761,39.788025 
	C117.706581,20.990524 103.358124,9.210835 84.090622,2.979465 
	C83.378937,2.749294 82.788422,2.144411 82.070724,1.357076 
	C98.260071,1.000000 114.520142,1.000000 131.000000,1.000000 
	C131.000000,17.020226 131.000000,33.041454 131.000000,49.531342 
z"/>
<path fill="#000000" opacity="1.000000" stroke="none" 
	d="
M1.000001,82.468658 
	C2.696618,85.400032 4.543509,88.734314 6.064809,92.211060 
	C14.291027,111.011078 28.641432,122.788834 47.909088,129.020477 
	C48.620872,129.250687 49.211472,129.855591 49.929276,130.642929 
	C33.739925,131.000000 17.479853,131.000000 1.000000,131.000000 
	C1.000000,114.979774 1.000000,98.958549 1.000001,82.468658 
z"/>
<path fill="#000000" opacity="1.000000" stroke="none" 
	d="
M82.468658,131.000000 
	C85.400368,129.303223 88.735123,127.456551 92.212044,125.934662 
	C111.009727,117.706688 122.789238,103.358109 129.020584,84.090614 
	C129.250748,83.378929 129.855591,82.788422 130.642914,82.070724 
	C131.000000,98.260071 131.000000,114.520142 131.000000,131.000000 
	C114.979774,131.000000 98.958549,131.000000 82.468658,131.000000 
z"/>
<path fill="#FDFDFD" opacity="1.000000" stroke="none" 
	d="
M76.080536,40.965111 
	C82.312630,41.183792 86.898514,44.254288 88.130554,50.234505 
	C90.400703,61.253708 92.525581,72.382690 93.462509,83.570480 
	C94.163574,91.941841 91.076027,95.058372 82.868599,96.571609 
	C71.166481,98.729172 59.373978,98.912338 47.705208,96.177460 
	C41.051765,94.618057 38.161510,92.336220 38.748234,85.619339 
	C39.838058,73.142952 42.012367,60.702072 44.746243,48.472435 
	C45.385891,45.611061 49.983768,43.547272 52.902233,41.300587 
	C59.134838,36.502621 65.437164,31.710840 73.757103,37.658180 
	C72.939857,38.802742 72.122444,39.364357 71.305023,39.925972 
	C71.390297,40.272350 71.475571,40.618732 71.560844,40.965111 
	C73.067406,40.965111 74.573975,40.965111 76.080536,40.965111 
M63.609077,39.659569 
	C63.061428,39.242237 62.513779,38.824905 61.966129,38.407578 
	C61.738731,38.912548 61.511337,39.417519 61.283939,39.922485 
	C62.025723,40.045715 62.767506,40.168945 63.609077,39.659569 
M68.545212,38.506847 
	C68.845581,38.829239 69.145943,39.151630 69.446312,39.474018 
	C69.556778,39.354599 69.776138,39.146885 69.761536,39.128880 
	C69.501472,38.808151 69.213005,38.510448 68.545212,38.506847 
z"/>
<path fill="#F4F4F4" opacity="1.000000" stroke="none" 
	d="
M95.582741,48.572945 
	C97.120117,46.740063 98.444862,45.208923 100.661552,42.646866 
	C101.659798,53.952679 98.149277,62.823051 95.416573,71.859802 
	C95.047173,64.171494 89.839157,56.517445 95.582741,48.572945 
z"/>
<path fill="#F3F3F3" opacity="1.000000" stroke="none" 
	d="
M34.011829,44.018219 
	C40.796585,52.174210 39.251957,61.289890 37.058090,70.479301 
	C36.982395,70.796371 36.876812,71.106300 35.632240,71.650391 
	C34.081718,63.107048 32.493465,54.569912 31.084391,46.003304 
	C31.008402,45.541321 32.435619,44.832088 33.612953,44.130333 
	C34.062813,44.022713 34.011829,44.018219 34.011829,44.018219 
z"/>
<path fill="#F1F1F1" opacity="1.000000" stroke="none" 
	d="
M34.062481,44.049942 
	C33.859646,43.189247 33.657143,42.301327 33.426369,41.289436 
	C38.901230,37.609970 42.282421,37.492905 46.858116,41.010399 
	C44.693993,44.176350 42.527802,47.348564 40.580986,50.199520 
	C38.694992,48.075748 36.567642,45.680191 34.226059,43.651428 
	C34.011829,44.018219 34.062813,44.022713 34.062481,44.049942 
z"/>
<path fill="#F6F6F6" opacity="1.000000" stroke="none" 
	d="
M90.824982,49.982719 
	C88.967751,46.869858 87.264229,44.079025 85.463425,41.128799 
	C88.403870,37.635746 92.523682,37.582733 98.650284,41.189545 
	C96.327919,44.326031 93.987785,47.489006 91.636696,50.643822 
	C91.590019,50.706463 91.382187,50.723629 91.307396,50.674297 
	C91.174431,50.586590 91.085838,50.431599 90.824982,49.982719 
z"/>
<path fill="#E9EAEA" opacity="1.000000" stroke="none" 
	d="
M75.941109,40.661369 
	C74.573975,40.965111 73.067406,40.965111 71.560844,40.965111 
	C71.475571,40.618732 71.390297,40.272350 71.305023,39.925972 
	C72.122444,39.364357 72.939857,38.802742 73.971985,37.953712 
	C74.725014,38.563408 75.263351,39.460522 75.941109,40.661369 
z"/>
<path fill="#E9EAEA" opacity="1.000000" stroke="none" 
	d="
M63.559181,39.975872 
	C62.767506,40.168945 62.025723,40.045715 61.283939,39.922485 
	C61.511337,39.417519 61.738731,38.912548 61.966129,38.407578 
	C62.513779,38.824905 63.061428,39.242237 63.559181,39.975872 
z"/>
<path fill="#E9EAEA" opacity="1.000000" stroke="none" 
	d="
M68.737930,38.357315 
	C69.213005,38.510448 69.501472,38.808151 69.761536,39.128880 
	C69.776138,39.146885 69.556778,39.354599 69.446312,39.474022 
	C69.145943,39.151630 68.845581,38.829239 68.737930,38.357315 
z"/>
</svg>